HIERARCHY
ROOT Hips
{
  OFFSET 0 0 0
  CHANNELS 6 Xposition Yposition Zposition Zrotation Yrotation Xrotation
  JOINT LeftThigh
  {
    OFFSET 8.759831 0 -6.164326
    CHANNELS 3 Zrotation Yrotation Xrotation
    JOINT LeftLeg
    {
      OFFSET 0 0 -44.123596
      CHANNELS 3 Zrotation Yrotation Xrotation
      JOINT LeftFoot
      {
        OFFSET 0 0 -40.997191
        CHANNELS 3 Zrotation Yrotation Xrotation
        End Site
        {
          OFFSET 0 -13.883989 -5.217556
        }
      }
    }
  }
  JOINT RightThigh
  {
    OFFSET -8.759831 0 -6.164326
    CHANNELS 3 Zrotation Yrotation Xrotation
    JOINT RightLeg
    {
      OFFSET 0 0 -44.123596
      CHANNELS 3 Zrotation Yrotation Xrotation
      JOINT RightFoot
      {
        OFFSET 0 0 -40.997191
        CHANNELS 3 Zrotation Yrotation Xrotation
        End Site
        {
          OFFSET 0 -13.883989 -5.217556
        }
      }
    }
  }
  JOINT SpineLow
  {
    OFFSET 0 0 4.91573
    CHANNELS 3 Zrotation Yrotation Xrotation
    JOINT SpineMid
    {
      OFFSET 0 0 13.436657
      CHANNELS 3 Zrotation Yrotation Xrotation
      JOINT Chest
      {
        OFFSET 0 0 13.436657
        CHANNELS 3 Zrotation Yrotation Xrotation
        JOINT LeftShoulder
        {
          OFFSET 7.865169 1.474719 9.831461
          CHANNELS 3 Zrotation Yrotation Xrotation
          JOINT LeftArm
          {
            OFFSET 9.536517 0 4.424157
            CHANNELS 3 Zrotation Yrotation Xrotation
            JOINT LeftForearm
            {
              OFFSET 0 0 26.845787
              CHANNELS 3 Zrotation Yrotation Xrotation
              JOINT LeftHand
              {
                OFFSET 0 0 26.247051
                CHANNELS 3 Zrotation Yrotation Xrotation
              }
            }
          }
        }
        JOINT RightShoulder
        {
          OFFSET -7.865169 1.474719 9.831461
          CHANNELS 3 Zrotation Yrotation Xrotation
          JOINT RightArm
          {
            OFFSET -9.536517 0 4.424157
            CHANNELS 3 Zrotation Yrotation Xrotation
            JOINT RightForearm
            {
              OFFSET 0 0 -26.845787
              CHANNELS 3 Zrotation Yrotation Xrotation
              JOINT RightHand
              {
                OFFSET 0 0 -26.247051
                CHANNELS 3 Zrotation Yrotation Xrotation
              }
            }
          }
        }
        JOINT Neck
        {
          OFFSET 0 0 15.730337
          CHANNELS 3 Zrotation Yrotation Xrotation
          JOINT Head
          {
            OFFSET 0 0 11.797753
            CHANNELS 3 Zrotation Yrotation Xrotation
            End Site
            {
              OFFSET 0 0 7.747191
            }
          }
        }
      }
    }
  }
}
MOTION
Frames: 16
Frame Time: 0.01
-3.802837  94.324104  -4.362752  179.990935  6.256571  79.412825  7.961382  -20.37302  1.71641  7.610796  3.366615  14.346385  -10.338864  13.686808  -1.234133  -18.486275  20.969974  -1.185396  -3.972078  -4.026388  16.905566  1.492951  -12.901856  -0.715704  0.090899  0.226902  0.4991  0.253141  0.618307  1.365126  0.253141  0.618307  1.365126  -9.428984  6.228846  27.068446  81.479522  50.483695  136.654328  -15.480787  -1.907797  39.520176  52.565734  -16.999715  -2.308247  14.923325  -24.457666  13.997726  40.841705  61.294879  -8.989787  -9.216035  2.000188  -38.52968  71.236743  5.293705  -9.142222  0.274551  -4.724051  7.374055  0.262961  -3.540339  5.52953  
-3.803324  94.329498  -4.372694  179.998882  6.204861  79.389592  8.013389  -20.370676  1.690997  7.461643  3.355068  14.332868  -10.315636  13.703741  -1.218681  -18.488109  20.995638  -1.103751  -3.947885  -4.072157  16.839022  1.419883  -12.892105  -0.685791  0.104488  0.222992  0.496683  0.290181  0.607349  1.358628  0.290181  0.607349  1.358628  -9.501792  6.239291  27.033603  81.433801  50.469956  136.633756  -15.461237  -1.925034  39.47362  52.622594  -17.012467  -2.270466  14.982085  -24.436291  13.923587  40.823893  61.24616  -8.915942  -9.168887  2.003561  -38.469642  71.151194  5.412561  -9.218811  0.300898  -4.656317  7.313792  0.281434  -3.489232  5.484617  
-3.793887  94.333282  -4.346272  179.997465  6.180554  79.378645  8.010991  -20.351202  1.707129  7.432681  3.334774  14.296814  -10.304388  13.711057  -1.200451  -18.406581  20.988384  -1.073747  -4.002099  -4.07376  16.846251  1.370243  -12.883122  -0.678545  0.109403  0.221579  0.498129  0.303599  0.603381  1.362621  0.303599  0.603381  1.36262  -9.537853  6.241597  26.978653  81.349006  50.467227  136.580962  -15.427859  -1.950588  39.410049  52.609196  -17.030296  -2.261001  14.990304  -24.405839  13.875644  40.817662  61.234803  -8.919244  -9.169314  1.988158  -38.417212  71.134568  5.4137  -9.206397  0.284453  -4.623829  7.266236  0.268354  -3.465073  5.448872  
-3.793749  94.332771  -4.399272  179.993074  6.146557  79.362137  7.972643  -20.335079  1.713597  7.438016  3.308044  14.27634  -10.317805  13.730593  -1.173044  -18.455372  21.042137  -1.011859  -3.978562  -4.119098  16.806542  1.377051  -12.874057  -0.6937  0.118617  0.219644  0.499204  0.328754  0.597894  1.365632  0.328754  0.597894  1.365632  -9.528387  6.237622  26.895563  81.271943  50.428471  136.558962  -15.380662  -1.972741  39.405351  52.811408  -16.873114  -2.479631  15.088473  -24.371901  13.790524  40.770186  61.196391  -8.908295  -9.184951  1.981707  -38.336864  71.043111  5.511695  -9.239595  0.33535  -4.556005  7.18916  0.305128  -3.413622  5.39153  
-3.779538  94.339722  -4.388308  179.986722  6.122434  79.351374  7.931313  -20.314483  1.742627  7.439051  3.295979  14.239851  -10.298488  13.736811  -1.150475  -18.451581  21.040176  -0.99581  -3.96393  -4.121399  16.801895  1.333591  -12.862519  -0.686547  0.122669  0.219376  0.499009  0.339821  0.597079  1.365133  0.339821  0.597079  1.365133  -9.548345  6.240929  26.849785  81.211359  50.42575  136.518292  -15.35897  -1.988952  39.364949  52.771119  -16.878353  -2.45232  15.094312  -24.348824  13.758504  40.706725  61.187393  -8.950864  -9.216485  1.949524  -38.295347  70.969408  5.527157  -9.225544  0.318579  -4.531437  7.148103  0.29196  -3.395404  5.360645  
-3.761567  94.343178  -4.452661  179.981223  6.04845  79.331946  7.795935  -20.286254  1.78056  7.520596  3.271622  14.211491  -10.327542  13.744899  -1.11506  -18.607553  21.090725  -0.953371  -3.916649  -4.143407  16.786021  1.380253  -12.853398  -0.718632  0.129652  0.220225  0.495717  0.358898  0.599276  1.356203  0.358898  0.599276  1.356203  -9.565971  6.235123  26.808468  81.207618  50.407184  136.539226  -15.318312  -1.995603  39.378547  52.967878  -16.72172  -2.630053  15.116216  -24.346405  13.724988  40.710814  61.157858  -8.941979  -9.289784  1.944334  -38.186521  70.824012  5.678926  -9.329222  0.34273  -4.475939  7.09056  0.308994  -3.353515  5.317727  
-3.742431  94.351479  -4.449952  179.979146  6.024271  79.323722  7.737059  -20.276614  1.802879  7.516649  3.266504  14.182154  -10.287237  13.758521  -1.09001  -18.682052  21.081379  -0.958359  -3.86982  -4.132623  16.781832  1.3804  -12.837432  -0.713666  0.132594  0.219945  0.495006  0.366926  0.598452  1.354285  0.366926  0.598452  1.354285  -9.572255  6.228936  26.773198  81.171246  50.414271  136.52488  -15.315071  -1.996226  39.349853  52.942718  -16.724172  -2.590625  15.124701  -24.330989  13.701109  40.665696  61.149001  -8.987561  -9.378417  1.913347  -38.1233  70.787745  5.686368  -9.332715  0.323618  -4.455452  7.050423  0.294133  -3.338385  5.287513  
-3.719628  94.365517  -4.479837  179.969911  5.974004  79.300089  7.583385  -20.247036  1.851656  7.575822  3.246133  14.159924  -10.260089  13.781619  -1.061661  -18.851733  21.100939  -0.933614  -3.769784  -4.134878  16.73394  1.384228  -12.814937  -0.700044  0.140967  0.219776  0.495114  0.389809  0.59782  1.354655  0.389809  0.59782  1.354655  -9.591101  6.219859  26.732497  81.221825  50.43124  136.572573  -15.284775  -1.989708  39.38042  53.134002  -16.585125  -2.69961  15.136818  -24.3239  13.661431  40.714036  61.123612  -8.931062  -9.458329  1.901292  -38.071309  70.708306  5.770445  -9.39739  0.37479  -4.397596  6.977973  0.331307  -3.29443  5.233609  
-3.688911  94.379677  -4.483154  179.967831  5.957604  79.289075  7.530148  -20.232077  1.888995  7.587084  3.219675  14.108553  -10.236389  13.809134  -1.027042  -18.960546  21.076213  -0.93354  -3.692675  -4.10415  16.707836  1.396964  -12.805585  -0.689067  0.143637  0.217432  0.496864  0.397074  0.591346  1.359446  0.397074  0.591346  1.359446  -9.590837  6.226461  26.682654  81.186657  50.439068  136.55223  -15.279601  -1.990795  39.363367  53.095261  -16.58607  -2.657992  15.163021  -24.294727  13.6225  40.675205  61.111284  -8.955616  -9.503641  1.88276  -38.025261  70.717121  5.761972  -9.383168  0.355519  -4.371851  6.934275  0.316251  -3.275357  5.200728  
-3.658767  94.392448  -4.474547  179.955726  5.917022  79.271132  7.383901  -20.203963  1.949997  7.607021  3.199216  14.071573  -10.174441  13.850682  -0.999255  -19.055289  21.057893  -0.951169  -3.689869  -4.045155  16.737051  1.439026  -12.800869  -0.690013  0.150612  0.215936  0.500927  0.416144  0.587088  1.370605  0.416144  0.587088  1.370605  -9.587651  6.23091  26.598592  81.208771  50.440288  136.5592  -15.243957  -1.980601  39.422611  53.276836  -16.464851  -2.733729  15.205961  -24.269533  13.54504  40.723203  61.07409  -8.881732  -9.504557  1.892265  -38.003246  70.652973  5.831814  -9.418285  0.406211  -4.315195  6.850634  0.353022  -3.232328  5.138418  
-3.618155  94.411263  -4.48937  179.944445  5.908651  79.268219  7.351538  -20.183561  1.982999  7.626296  3.178783  14.018569  -10.169515  13.872441  -0.968454  -19.16597  21.024431  -0.951545  -3.614722  -3.990012  16.699625  1.467367  -12.804128  -0.683565  0.156836  0.2152  0.502247  0.433153  0.584939  1.374264  0.433153  0.584939  1.374264  -9.600489  6.238381  26.542987  81.159335  50.437925  136.521044  -15.246513  -1.986855  39.419036  53.234374  -16.469229  -2.664591  15.222329  -24.241069  13.49257  40.676246  61.062507  -8.89941  -9.483932  1.880795  -37.987156  70.654731  5.812274  -9.382361  0.37569  -4.294889  6.810843  0.329631  -3.217456  5.108383  
-3.570545  94.43116  -4.451728  179.92366  5.873232  79.254957  7.224452  -20.150415  2.036256  7.656886  3.156582  13.976928  -10.098598  13.915358  -0.937892  -19.219955  20.97657  -0.97617  -3.638523  -3.893144  16.724889  1.524801  -12.800683  -0.679076  0.16531  0.21625  0.507442  0.456383  0.587597  1.388546  0.456383  0.587597  1.388546  -9.605368  6.235163  26.445904  81.164258  50.422692  136.524418  -15.212368  -1.984443  39.4767  53.251083  -16.46088  -2.623631  15.256108  -24.219978  13.401515  40.711541  61.034039  -8.825186  -9.462173  1.882858  -37.954618  70.554984  5.935536  -9.44404  0.411617  -4.246596  6.729868  0.355464  -3.180875  5.047954  
-3.533419  94.450577  -4.46122  179.906187  5.865969  79.254905  7.21123  -20.12306  2.064355  7.682399  3.12862  13.922212  -10.115721  13.939848  -0.905563  -19.292397  20.950193  -0.974579  -3.605139  -3.839106  16.69028  1.557547  -12.801689  -0.665647  0.172497  0.216772  0.510777  0.476067  0.588848  1.397728  0.476067  0.588848  1.397728  -9.619451  6.236888  26.376535  81.122221  50.41304  136.496111  -15.205856  -2.001409  39.481036  53.218439  -16.461346  -2.575434  15.267527  -24.190943  13.332631  40.668373  61.024016  -8.831147  -9.457865  1.855813  -37.966672  70.538804  5.934423  -9.422212  0.374208  -4.232929  6.683033  0.326941  -3.171057  5.012589  
-3.493128  94.475014  -4.429798  179.892859  5.833414  79.242346  7.087149  -20.098336  2.120201  7.806178  3.097931  13.873242  -10.139545  13.971391  -0.857445  -19.297804  20.892392  -0.968936  -3.646503  -3.749676  16.691588  1.53428  -12.801636  -0.628178  0.17741  0.216931  0.518541  0.48957  0.589119  1.418996  0.48957  0.58912  1.418996  -9.576248  6.219338  26.269487  81.110271  50.388205  136.526762  -15.157948  -2.018688  39.529378  53.23013  -16.448921  -2.545502  15.340734  -24.168049  13.227045  40.67421  61.000412  -8.767796  -9.470586  1.830314  -37.969572  70.443991  6.039017  -9.472739  0.426676  -4.192042  6.593117  0.365213  -3.139865  4.945562  
-3.449955  94.496498  -4.430856  179.879771  5.826785  79.244144  7.090146  -20.079367  2.13992  7.804239  3.07699  13.816347  -10.142578  13.99869  -0.822456  -19.312883  20.851851  -0.945427  -3.644933  -3.694804  16.646475  1.54388  -12.800692  -0.610124  0.184177  0.217276  0.522625  0.50811  0.589886  1.430223  0.50811  0.589886  1.430224  -9.587094  6.210676  26.197098  81.09253  50.384173  136.518222  -15.145767  -2.02831  39.538124  53.205099  -16.447262  -2.487493  15.350844  -24.136593  13.160905  40.590857  60.992218  -8.803213  -9.492912  1.779806  -37.997412  70.435102  6.038243  -9.460647  0.386967  -4.181632  6.54831  0.33502  -3.132508  4.911703  
-3.401422  94.51545  -4.396971  179.871412  5.795906  79.249393  7.018172  -20.062409  2.1616  7.89071  3.060937  13.771195  -10.204508  14.013341  -0.781767  -19.256729  20.787817  -0.939912  -3.771483  -3.60158  16.668014  1.594245  -12.799715  -0.604445  0.187424  0.218383  0.528501  0.51706  0.592797  1.446321  0.51706  0.592797  1.446321  -9.53956  6.175171  26.086561  81.071  50.342602  136.555784  -15.126513  -2.036225  39.57993  53.214987  -16.426788  -2.45598  15.425124  -24.123257  13.059995  40.60718  60.974316  -8.760889  -9.496769  1.752001  -38.012549  70.36211  6.138899  -9.521023  0.442186  -4.14985  6.464655  0.375512  -3.108126  4.849378  
